<svg width="17" height="20" viewBox="0 0 17 20" fill="currentColor" xmlns="http://www.w3.org/2000/svg">
<path fill-rule="evenodd" clip-rule="evenodd" d="M11.7647 7.05884H13.6353C14.6824 7.05884 15.2 8.32943 14.4588 9.0706L9.05881 14.4706C8.59999 14.9294 7.85881 14.9294 7.39999 14.4706L1.99998 9.0706C1.2588 8.32943 1.78821 7.05884 2.83527 7.05884H4.70586V1.17647C4.70586 0.529413 5.23528 0 5.88234 0H10.5882C11.2353 0 11.7647 0.529413 11.7647 1.17647V7.05884ZM1.17647 20.0001C0.529413 20.0001 0 19.4707 0 18.8236C0 18.1766 0.529413 17.6472 1.17647 17.6472H15.2941C15.9412 17.6472 16.4706 18.1766 16.4706 18.8236C16.4706 19.4707 15.9412 20.0001 15.2941 20.0001H1.17647Z" fill="currentColor"/>
</svg>
