<svg id="svg" version="1.1" xmlns="http://www.w3.org/2000/svg" xmlns:xlink="http://www.w3.org/1999/xlink" width="400" height="453.9278131634819" viewBox="0, 0, 400,453.9278131634819"><g id="svgg"><path id="path0" d="M200.425 58.280 L 200.425 83.439 262.845 83.439 L 325.265 83.439 325.265 84.130 C 325.263 86.649,324.209 99.229,323.126 109.660 C 322.422 116.433,321.636 124.506,321.379 127.601 L 320.911 133.227 260.668 133.281 L 200.425 133.334 200.425 158.811 L 200.425 184.289 258.374 184.289 C 290.246 184.289,316.361 184.360,316.408 184.448 C 316.455 184.536,316.083 187.665,315.581 191.401 C 314.851 196.841,313.524 211.333,308.923 264.119 C 303.775 323.191,302.411 338.451,302.272 338.551 C 302.249 338.567,279.443 344.863,251.592 352.540 C 223.742 360.218,200.836 366.597,200.690 366.715 C 200.206 367.108,200.312 418.108,200.796 417.967 C 201.001 417.907,230.594 409.769,266.561 399.883 C 302.527 389.996,332.036 381.830,332.137 381.736 C 332.238 381.642,339.230 303.762,347.675 208.670 C 356.120 113.578,363.091 35.178,363.166 34.448 L 363.303 33.121 281.864 33.121 L 200.425 33.121 200.425 58.280 M200.425 274.651 C 200.425 306.560,200.477 314.250,200.694 314.167 C 200.842 314.110,213.095 310.794,227.923 306.796 C 242.751 302.799,254.961 299.457,255.056 299.369 C 255.179 299.255,261.348 236.429,261.358 235.191 C 261.358 235.104,247.649 235.032,230.892 235.032 L 200.425 235.032 200.425 274.651 " stroke="none" fill="#ec642c" fill-rule="evenodd"></path><path id="path1" d="M0.416 0.796 C 0.412 1.001,8.554 92.610,18.510 204.373 L 36.613 407.579 117.616 430.474 C 162.168 443.066,198.885 453.410,199.209 453.461 C 199.579 453.518,230.298 444.981,281.593 430.566 L 363.387 407.579 381.489 204.373 C 391.446 92.610,399.588 1.001,399.584 0.796 C 399.571 0.217,0.429 0.217,0.416 0.796 M363.348 33.599 C 363.307 33.861,356.332 112.325,347.848 207.962 C 339.365 303.599,332.413 381.862,332.401 381.880 C 332.388 381.899,302.712 390.076,266.454 400.051 L 200.531 418.189 200.477 392.562 L 200.423 366.935 199.628 366.823 C 198.890 366.720,97.001 338.678,96.856 338.538 C 96.788 338.472,90.662 260.971,90.660 260.138 L 90.658 259.660 115.499 259.660 C 129.161 259.660,140.345 259.684,140.351 259.713 C 140.357 259.743,141.156 268.634,142.127 279.472 C 143.097 290.311,143.976 299.257,144.080 299.352 C 144.436 299.682,199.624 314.451,200.025 314.323 C 200.414 314.200,200.425 313.187,200.425 274.614 L 200.425 235.032 144.161 235.032 C 97.735 235.032,87.898 234.983,87.898 234.752 C 87.898 234.598,85.129 203.619,81.745 165.909 C 76.387 106.203,74.737 86.953,74.735 84.130 L 74.735 83.439 137.580 83.439 L 200.425 83.439 200.425 58.280 L 200.425 33.121 281.924 33.121 L 363.423 33.121 363.348 33.599 M129.843 134.236 C 129.903 134.732,130.854 145.695,131.955 158.599 C 133.056 171.502,134.015 182.561,134.085 183.174 L 134.213 184.289 167.319 184.289 L 200.425 184.289 200.425 158.811 L 200.425 133.333 165.078 133.333 L 129.732 133.333 129.843 134.236 " stroke="none" fill="#e44c24" fill-rule="evenodd"></path><path id="path2" d="M137.314 83.599 C 171.791 83.628,228.209 83.628,262.686 83.599 C 297.163 83.569,268.954 83.545,200.000 83.545 C 131.046 83.545,102.837 83.569,137.314 83.599 M74.798 84.926 C 74.798 85.568,74.838 85.831,74.887 85.510 C 74.935 85.188,74.935 84.663,74.887 84.342 C 74.838 84.021,74.798 84.283,74.798 84.926 M325.119 85.032 C 325.120 85.732,325.160 85.994,325.207 85.612 C 325.254 85.230,325.253 84.657,325.205 84.338 C 325.156 84.019,325.118 84.331,325.119 85.032 M75.011 88.110 C 75.011 88.753,75.050 89.015,75.099 88.694 C 75.148 88.373,75.148 87.848,75.099 87.527 C 75.050 87.205,75.011 87.468,75.011 88.110 M324.907 88.217 C 324.908 88.917,324.947 89.178,324.995 88.797 C 325.042 88.415,325.041 87.842,324.992 87.523 C 324.944 87.204,324.905 87.516,324.907 88.217 M75.223 91.295 C 75.223 91.937,75.263 92.200,75.311 91.879 C 75.360 91.558,75.360 91.032,75.311 90.711 C 75.263 90.390,75.223 90.653,75.223 91.295 M324.694 91.401 C 324.695 92.102,324.735 92.363,324.782 91.981 C 324.830 91.600,324.829 91.026,324.780 90.707 C 324.732 90.388,324.693 90.701,324.694 91.401 M75.435 94.480 C 75.435 95.122,75.475 95.385,75.524 95.064 C 75.572 94.743,75.572 94.217,75.524 93.896 C 75.475 93.575,75.435 93.838,75.435 94.480 M324.482 94.586 C 324.483 95.287,324.523 95.548,324.570 95.166 C 324.617 94.784,324.616 94.211,324.568 93.892 C 324.519 93.573,324.481 93.885,324.482 94.586 M75.642 97.452 C 75.642 97.978,75.683 98.193,75.734 97.930 C 75.784 97.667,75.784 97.237,75.734 96.975 C 75.683 96.712,75.642 96.927,75.642 97.452 M324.262 97.452 C 324.262 97.978,324.303 98.193,324.354 97.930 C 324.404 97.667,324.404 97.237,324.354 96.975 C 324.303 96.712,324.262 96.927,324.262 97.452 M324.045 99.469 C 324.047 99.936,324.091 100.102,324.142 99.838 C 324.192 99.574,324.191 99.192,324.137 98.989 C 324.084 98.786,324.043 99.002,324.045 99.469 M75.854 99.788 C 75.854 100.313,75.895 100.528,75.946 100.265 C 75.997 100.003,75.997 99.573,75.946 99.310 C 75.895 99.047,75.854 99.262,75.854 99.788 M323.833 101.592 C 323.835 102.059,323.879 102.226,323.929 101.961 C 323.980 101.697,323.978 101.315,323.925 101.112 C 323.872 100.909,323.830 101.125,323.833 101.592 M76.066 102.123 C 76.066 102.649,76.108 102.864,76.158 102.601 C 76.209 102.338,76.209 101.908,76.158 101.645 C 76.108 101.383,76.066 101.598,76.066 102.123 M323.625 103.609 C 323.625 104.135,323.666 104.350,323.717 104.087 C 323.767 103.824,323.767 103.394,323.717 103.132 C 323.666 102.869,323.625 103.084,323.625 103.609 M76.274 104.565 C 76.277 105.032,76.320 105.198,76.371 104.934 C 76.422 104.670,76.420 104.288,76.367 104.085 C 76.314 103.882,76.272 104.098,76.274 104.565 M323.408 105.626 C 323.410 106.093,323.454 106.260,323.505 105.995 C 323.556 105.731,323.554 105.349,323.500 105.146 C 323.447 104.943,323.406 105.159,323.408 105.626 M76.491 107.006 C 76.491 107.532,76.532 107.747,76.583 107.484 C 76.634 107.221,76.634 106.791,76.583 106.529 C 76.532 106.266,76.491 106.481,76.491 107.006 M323.196 107.749 C 323.198 108.217,323.242 108.383,323.292 108.119 C 323.343 107.854,323.341 107.472,323.288 107.269 C 323.235 107.066,323.193 107.282,323.196 107.749 M76.703 109.342 C 76.703 109.867,76.745 110.082,76.795 109.820 C 76.846 109.557,76.846 109.127,76.795 108.864 C 76.745 108.601,76.703 108.816,76.703 109.342 M322.988 109.766 C 322.988 110.292,323.029 110.507,323.080 110.244 C 323.130 109.981,323.130 109.551,323.080 109.289 C 323.029 109.026,322.988 109.241,322.988 109.766 M76.916 111.677 C 76.916 112.203,76.957 112.418,77.008 112.155 C 77.058 111.892,77.058 111.462,77.008 111.200 C 76.957 110.937,76.916 111.152,76.916 111.677 M322.771 111.783 C 322.774 112.251,322.817 112.417,322.868 112.153 C 322.919 111.888,322.917 111.506,322.863 111.303 C 322.810 111.100,322.769 111.316,322.771 111.783 M77.128 114.013 C 77.128 114.538,77.169 114.753,77.220 114.490 C 77.271 114.228,77.271 113.798,77.220 113.535 C 77.169 113.272,77.128 113.487,77.128 114.013 M322.559 113.907 C 322.561 114.374,322.605 114.540,322.655 114.276 C 322.706 114.012,322.704 113.629,322.651 113.426 C 322.598 113.223,322.556 113.439,322.559 113.907 M322.351 115.924 C 322.351 116.449,322.392 116.664,322.443 116.401 C 322.493 116.139,322.493 115.709,322.443 115.446 C 322.392 115.183,322.351 115.398,322.351 115.924 M77.340 116.348 C 77.340 116.874,77.382 117.089,77.432 116.826 C 77.483 116.563,77.483 116.133,77.432 115.870 C 77.382 115.608,77.340 115.823,77.340 116.348 M322.134 117.941 C 322.137 118.408,322.180 118.574,322.231 118.310 C 322.282 118.046,322.280 117.663,322.227 117.460 C 322.173 117.257,322.132 117.473,322.134 117.941 M77.553 118.684 C 77.553 119.209,77.594 119.424,77.645 119.161 C 77.695 118.899,77.695 118.469,77.645 118.206 C 77.594 117.943,77.553 118.158,77.553 118.684 M321.922 120.064 C 321.924 120.531,321.968 120.697,322.019 120.433 C 322.069 120.169,322.067 119.787,322.014 119.584 C 321.961 119.381,321.920 119.597,321.922 120.064 M77.761 121.125 C 77.763 121.592,77.806 121.758,77.857 121.494 C 77.908 121.230,77.906 120.848,77.853 120.645 C 77.800 120.442,77.758 120.658,77.761 121.125 M321.714 122.081 C 321.714 122.606,321.755 122.821,321.806 122.558 C 321.856 122.296,321.856 121.866,321.806 121.603 C 321.755 121.340,321.714 121.555,321.714 122.081 M77.977 123.567 C 77.977 124.092,78.019 124.307,78.069 124.045 C 78.120 123.782,78.120 123.352,78.069 123.089 C 78.019 122.826,77.977 123.041,77.977 123.567 M321.504 124.522 C 321.506 125.106,321.547 125.320,321.596 124.997 C 321.645 124.674,321.644 124.197,321.593 123.936 C 321.543 123.674,321.503 123.938,321.504 124.522 M78.189 125.902 C 78.189 126.428,78.231 126.643,78.281 126.380 C 78.332 126.117,78.332 125.687,78.281 125.425 C 78.231 125.162,78.189 125.377,78.189 125.902 M321.292 127.070 C 321.294 127.654,321.335 127.868,321.384 127.545 C 321.433 127.222,321.431 126.744,321.381 126.483 C 321.330 126.222,321.291 126.486,321.292 127.070 M78.402 128.238 C 78.402 128.763,78.443 128.978,78.494 128.715 C 78.544 128.453,78.544 128.023,78.494 127.760 C 78.443 127.497,78.402 127.712,78.402 128.238 M321.080 129.618 C 321.081 130.202,321.123 130.415,321.171 130.093 C 321.220 129.770,321.219 129.292,321.169 129.031 C 321.118 128.770,321.078 129.034,321.080 129.618 M78.614 130.573 C 78.614 131.099,78.655 131.314,78.706 131.051 C 78.757 130.788,78.757 130.358,78.706 130.096 C 78.655 129.833,78.614 130.048,78.614 130.573 M320.842 132.112 L 320.807 133.121 225.106 133.174 L 129.406 133.228 225.113 133.280 C 306.818 133.326,320.837 133.290,320.934 133.037 C 320.996 132.874,321.009 132.373,320.963 131.923 C 320.882 131.145,320.876 131.154,320.842 132.112 M78.826 132.909 C 78.826 133.434,78.868 133.649,78.918 133.386 C 78.969 133.124,78.969 132.694,78.918 132.431 C 78.868 132.168,78.826 132.383,78.826 132.909 M129.782 135.032 C 129.782 135.557,129.823 135.772,129.874 135.510 C 129.924 135.247,129.924 134.817,129.874 134.554 C 129.823 134.291,129.782 134.506,129.782 135.032 M79.039 135.244 C 79.039 135.770,79.080 135.985,79.131 135.722 C 79.181 135.459,79.181 135.029,79.131 134.766 C 79.080 134.504,79.039 134.719,79.039 135.244 M129.997 137.473 C 129.999 138.057,130.040 138.271,130.089 137.948 C 130.137 137.626,130.136 137.148,130.086 136.887 C 130.035 136.626,129.995 136.890,129.997 137.473 M79.247 137.686 C 79.249 138.153,79.293 138.319,79.343 138.055 C 79.394 137.791,79.392 137.409,79.339 137.206 C 79.286 137.003,79.244 137.219,79.247 137.686 M130.206 139.915 C 130.206 140.441,130.248 140.656,130.298 140.393 C 130.349 140.130,130.349 139.700,130.298 139.437 C 130.248 139.175,130.206 139.390,130.206 139.915 M79.463 140.127 C 79.463 140.653,79.505 140.868,79.555 140.605 C 79.606 140.342,79.606 139.912,79.555 139.650 C 79.505 139.387,79.463 139.602,79.463 140.127 M79.676 142.463 C 79.676 142.988,79.717 143.203,79.768 142.941 C 79.818 142.678,79.818 142.248,79.768 141.985 C 79.717 141.722,79.676 141.937,79.676 142.463 M130.419 142.463 C 130.419 142.988,130.460 143.203,130.511 142.941 C 130.561 142.678,130.561 142.248,130.511 141.985 C 130.460 141.722,130.419 141.937,130.419 142.463 M79.888 144.798 C 79.888 145.324,79.929 145.539,79.980 145.276 C 80.031 145.013,80.031 144.583,79.980 144.321 C 79.929 144.058,79.888 144.273,79.888 144.798 M130.631 144.798 C 130.631 145.324,130.672 145.539,130.723 145.276 C 130.774 145.013,130.774 144.583,130.723 144.321 C 130.672 144.058,130.631 144.273,130.631 144.798 M80.100 147.134 C 80.100 147.659,80.142 147.874,80.192 147.611 C 80.243 147.349,80.243 146.919,80.192 146.656 C 80.142 146.393,80.100 146.608,80.100 147.134 M130.843 147.346 C 130.843 147.872,130.885 148.087,130.935 147.824 C 130.986 147.561,130.986 147.131,130.935 146.868 C 130.885 146.606,130.843 146.821,130.843 147.346 M80.313 149.469 C 80.313 149.995,80.354 150.210,80.405 149.947 C 80.455 149.684,80.455 149.254,80.405 148.992 C 80.354 148.729,80.313 148.944,80.313 149.469 M131.059 149.788 C 131.060 150.372,131.101 150.585,131.150 150.262 C 131.199 149.940,131.198 149.462,131.147 149.201 C 131.097 148.940,131.057 149.204,131.059 149.788 M80.525 151.805 C 80.525 152.330,80.566 152.545,80.617 152.282 C 80.668 152.020,80.668 151.590,80.617 151.327 C 80.566 151.064,80.525 151.279,80.525 151.805 M131.268 152.229 C 131.268 152.755,131.309 152.970,131.360 152.707 C 131.411 152.444,131.411 152.014,131.360 151.752 C 131.309 151.489,131.268 151.704,131.268 152.229 M80.733 154.246 C 80.735 154.713,80.779 154.879,80.830 154.615 C 80.880 154.351,80.878 153.969,80.825 153.766 C 80.772 153.563,80.731 153.779,80.733 154.246 M131.480 154.777 C 131.480 155.303,131.522 155.518,131.572 155.255 C 131.623 154.992,131.623 154.562,131.572 154.299 C 131.522 154.037,131.480 154.252,131.480 154.777 M80.950 156.688 C 80.950 157.213,80.991 157.428,81.042 157.166 C 81.092 156.903,81.092 156.473,81.042 156.210 C 80.991 155.947,80.950 156.162,80.950 156.688 M131.693 157.113 C 131.693 157.638,131.734 157.853,131.785 157.590 C 131.835 157.327,131.835 156.898,131.785 156.635 C 131.734 156.372,131.693 156.587,131.693 157.113 M81.162 159.023 C 81.162 159.549,81.203 159.764,81.254 159.501 C 81.304 159.238,81.304 158.808,81.254 158.546 C 81.203 158.283,81.162 158.498,81.162 159.023 M131.905 159.660 C 131.905 160.186,131.946 160.401,131.997 160.138 C 132.048 159.875,132.048 159.445,131.997 159.183 C 131.946 158.920,131.905 159.135,131.905 159.660 M81.374 161.359 C 81.374 161.884,81.416 162.099,81.466 161.837 C 81.517 161.574,81.517 161.144,81.466 160.881 C 81.416 160.618,81.374 160.833,81.374 161.359 M132.120 162.102 C 132.122 162.686,132.163 162.899,132.212 162.577 C 132.261 162.254,132.259 161.776,132.209 161.515 C 132.159 161.254,132.119 161.518,132.120 162.102 M81.586 163.694 C 81.586 164.220,81.628 164.435,81.678 164.172 C 81.729 163.909,81.729 163.479,81.678 163.217 C 81.628 162.954,81.586 163.169,81.586 163.694 M132.330 164.544 C 132.330 165.069,132.371 165.284,132.422 165.021 C 132.472 164.758,132.472 164.329,132.422 164.066 C 132.371 163.803,132.330 164.018,132.330 164.544 M81.799 166.030 C 81.799 166.555,81.840 166.770,81.891 166.507 C 81.941 166.245,81.941 165.815,81.891 165.552 C 81.840 165.289,81.799 165.504,81.799 166.030 M132.542 167.091 C 132.542 167.617,132.583 167.832,132.634 167.569 C 132.685 167.306,132.685 166.876,132.634 166.614 C 132.583 166.351,132.542 166.566,132.542 167.091 M82.011 168.365 C 82.011 168.891,82.053 169.106,82.103 168.843 C 82.154 168.580,82.154 168.150,82.103 167.887 C 82.053 167.625,82.011 167.840,82.011 168.365 M132.754 169.427 C 132.754 169.952,132.796 170.167,132.846 169.904 C 132.897 169.642,132.897 169.212,132.846 168.949 C 132.796 168.686,132.754 168.901,132.754 169.427 M82.219 170.807 C 82.222 171.274,82.265 171.440,82.316 171.176 C 82.367 170.912,82.365 170.530,82.311 170.327 C 82.258 170.124,82.217 170.340,82.219 170.807 M132.967 171.975 C 132.967 172.500,133.008 172.715,133.059 172.452 C 133.109 172.189,133.109 171.760,133.059 171.497 C 133.008 171.234,132.967 171.449,132.967 171.975 M82.436 173.248 C 82.436 173.774,82.477 173.989,82.528 173.726 C 82.578 173.463,82.578 173.033,82.528 172.771 C 82.477 172.508,82.436 172.723,82.436 173.248 M133.182 174.416 C 133.183 175.000,133.225 175.214,133.273 174.891 C 133.322 174.568,133.321 174.090,133.270 173.829 C 133.220 173.568,133.180 173.832,133.182 174.416 M82.648 175.584 C 82.648 176.109,82.689 176.324,82.740 176.062 C 82.791 175.799,82.791 175.369,82.740 175.106 C 82.689 174.843,82.648 175.058,82.648 175.584 M133.391 176.858 C 133.391 177.383,133.433 177.598,133.483 177.335 C 133.534 177.073,133.534 176.643,133.483 176.380 C 133.433 176.117,133.391 176.332,133.391 176.858 M82.860 177.919 C 82.860 178.445,82.902 178.660,82.952 178.397 C 83.003 178.134,83.003 177.704,82.952 177.442 C 82.902 177.179,82.860 177.394,82.860 177.919 M133.603 179.406 C 133.603 179.931,133.645 180.146,133.695 179.883 C 133.746 179.620,133.746 179.191,133.695 178.928 C 133.645 178.665,133.603 178.880,133.603 179.406 M83.073 180.255 C 83.073 180.780,83.114 180.995,83.165 180.732 C 83.215 180.470,83.215 180.040,83.165 179.777 C 83.114 179.514,83.073 179.729,83.073 180.255 M133.816 181.741 C 133.816 182.266,133.857 182.481,133.908 182.219 C 133.958 181.956,133.958 181.526,133.908 181.263 C 133.857 181.001,133.816 181.215,133.816 181.741 M83.285 182.590 C 83.285 183.116,83.326 183.331,83.377 183.068 C 83.428 182.805,83.428 182.375,83.377 182.113 C 83.326 181.850,83.285 182.065,83.285 182.590 M133.999 183.917 L 133.970 184.500 225.245 184.554 C 275.446 184.583,316.476 184.536,316.422 184.448 C 316.367 184.360,275.348 184.289,225.268 184.289 L 134.212 184.289 134.120 183.811 C 134.041 183.401,134.024 183.416,133.999 183.917 M83.497 184.926 C 83.497 185.451,83.539 185.666,83.589 185.403 C 83.640 185.141,83.640 184.711,83.589 184.448 C 83.539 184.185,83.497 184.400,83.497 184.926 M316.185 185.775 C 316.185 186.184,316.229 186.351,316.282 186.146 C 316.336 185.942,316.336 185.608,316.282 185.403 C 316.229 185.199,316.185 185.366,316.185 185.775 M83.705 187.367 C 83.708 187.834,83.751 188.000,83.802 187.736 C 83.853 187.472,83.851 187.090,83.798 186.887 C 83.745 186.684,83.703 186.900,83.705 187.367 M315.973 187.261 C 315.973 187.670,316.017 187.837,316.070 187.633 C 316.123 187.428,316.123 187.094,316.070 186.890 C 316.017 186.685,315.973 186.852,315.973 187.261 M315.761 188.960 C 315.761 189.368,315.804 189.536,315.858 189.331 C 315.911 189.127,315.911 188.792,315.858 188.588 C 315.804 188.384,315.761 188.551,315.761 188.960 M83.922 189.809 C 83.922 190.334,83.963 190.549,84.014 190.287 C 84.065 190.024,84.065 189.594,84.014 189.331 C 83.963 189.068,83.922 189.283,83.922 189.809 M315.548 190.446 C 315.548 190.855,315.592 191.022,315.645 190.817 C 315.699 190.613,315.699 190.279,315.645 190.074 C 315.592 189.870,315.548 190.037,315.548 190.446 M84.134 192.144 C 84.134 192.670,84.176 192.885,84.226 192.622 C 84.277 192.359,84.277 191.929,84.226 191.667 C 84.176 191.404,84.134 191.619,84.134 192.144 M315.336 192.144 C 315.336 192.553,315.380 192.720,315.433 192.516 C 315.486 192.312,315.486 191.977,315.433 191.773 C 315.380 191.568,315.336 191.736,315.336 192.144 M315.124 193.631 C 315.124 194.039,315.167 194.206,315.221 194.002 C 315.274 193.798,315.274 193.463,315.221 193.259 C 315.167 193.055,315.124 193.222,315.124 193.631 M84.347 194.480 C 84.347 195.005,84.388 195.220,84.439 194.958 C 84.489 194.695,84.489 194.265,84.439 194.002 C 84.388 193.739,84.347 193.954,84.347 194.480 M314.911 195.329 C 314.911 195.738,314.955 195.905,315.008 195.701 C 315.062 195.496,315.062 195.162,315.008 194.958 C 314.955 194.753,314.911 194.920,314.911 195.329 M84.559 196.815 C 84.559 197.341,84.600 197.556,84.651 197.293 C 84.702 197.030,84.702 196.600,84.651 196.338 C 84.600 196.075,84.559 196.290,84.559 196.815 M314.699 196.815 C 314.699 197.224,314.743 197.391,314.796 197.187 C 314.849 196.982,314.849 196.648,314.796 196.444 C 314.743 196.239,314.699 196.407,314.699 196.815 M314.498 198.832 C 314.500 199.416,314.541 199.630,314.590 199.307 C 314.639 198.984,314.637 198.507,314.587 198.245 C 314.536 197.984,314.496 198.248,314.498 198.832 M84.771 199.151 C 84.771 199.676,84.813 199.891,84.863 199.628 C 84.914 199.366,84.914 198.936,84.863 198.673 C 84.813 198.410,84.771 198.625,84.771 199.151 M314.286 201.168 C 314.287 201.752,314.329 201.965,314.377 201.643 C 314.426 201.320,314.425 200.842,314.375 200.581 C 314.324 200.320,314.284 200.584,314.286 201.168 M84.984 201.486 C 84.984 202.012,85.025 202.227,85.076 201.964 C 85.126 201.701,85.126 201.271,85.076 201.008 C 85.025 200.746,84.984 200.961,84.984 201.486 M314.073 203.715 C 314.075 204.299,314.116 204.513,314.165 204.190 C 314.214 203.868,314.213 203.390,314.162 203.129 C 314.112 202.868,314.072 203.132,314.073 203.715 M85.192 203.928 C 85.194 204.395,85.237 204.561,85.288 204.297 C 85.339 204.033,85.337 203.651,85.284 203.448 C 85.231 203.245,85.189 203.461,85.192 203.928 M313.861 206.051 C 313.863 206.635,313.904 206.848,313.953 206.526 C 314.002 206.203,314.000 205.725,313.950 205.464 C 313.899 205.203,313.860 205.467,313.861 206.051 M85.408 206.369 C 85.408 206.895,85.450 207.110,85.500 206.847 C 85.551 206.584,85.551 206.154,85.500 205.892 C 85.450 205.629,85.408 205.844,85.408 206.369 M313.646 208.493 C 313.646 209.018,313.687 209.233,313.738 208.970 C 313.789 208.708,313.789 208.278,313.738 208.015 C 313.687 207.752,313.646 207.967,313.646 208.493 M85.620 208.705 C 85.620 209.230,85.662 209.445,85.712 209.183 C 85.763 208.920,85.763 208.490,85.712 208.227 C 85.662 207.964,85.620 208.179,85.620 208.705 M313.437 210.934 C 313.438 211.518,313.479 211.732,313.528 211.409 C 313.577 211.086,313.576 210.609,313.525 210.347 C 313.475 210.086,313.435 210.350,313.437 210.934 M85.833 211.040 C 85.833 211.566,85.874 211.781,85.925 211.518 C 85.975 211.255,85.975 210.825,85.925 210.563 C 85.874 210.300,85.833 210.515,85.833 211.040 M86.045 213.376 C 86.045 213.901,86.086 214.116,86.137 213.854 C 86.188 213.591,86.188 213.161,86.137 212.898 C 86.086 212.635,86.045 212.850,86.045 213.376 M313.221 213.376 C 313.221 213.901,313.263 214.116,313.313 213.854 C 313.364 213.591,313.364 213.161,313.313 212.898 C 313.263 212.635,313.221 212.850,313.221 213.376 M86.257 215.711 C 86.257 216.237,86.299 216.452,86.349 216.189 C 86.400 215.926,86.400 215.496,86.349 215.234 C 86.299 214.971,86.257 215.186,86.257 215.711 M313.012 215.817 C 313.013 216.401,313.055 216.615,313.104 216.292 C 313.152 215.969,313.151 215.492,313.101 215.231 C 313.050 214.969,313.010 215.234,313.012 215.817 M86.470 218.047 C 86.470 218.572,86.511 218.787,86.562 218.524 C 86.612 218.262,86.612 217.832,86.562 217.569 C 86.511 217.306,86.470 217.521,86.470 218.047 M312.797 218.259 C 312.797 218.785,312.838 218.999,312.889 218.737 C 312.939 218.474,312.939 218.044,312.889 217.781 C 312.838 217.519,312.797 217.734,312.797 218.259 M86.678 220.488 C 86.680 220.955,86.724 221.121,86.774 220.857 C 86.825 220.593,86.823 220.211,86.770 220.008 C 86.717 219.805,86.675 220.021,86.678 220.488 M312.587 220.701 C 312.589 221.285,312.630 221.498,312.679 221.175 C 312.728 220.853,312.726 220.375,312.676 220.114 C 312.626 219.853,312.586 220.117,312.587 220.701 M86.894 222.930 C 86.894 223.455,86.936 223.670,86.986 223.408 C 87.037 223.145,87.037 222.715,86.986 222.452 C 86.936 222.189,86.894 222.404,86.894 222.930 M312.372 223.142 C 312.372 223.668,312.413 223.883,312.464 223.620 C 312.515 223.357,312.515 222.927,312.464 222.665 C 312.413 222.402,312.372 222.617,312.372 223.142 M87.107 225.265 C 87.107 225.791,87.148 226.006,87.199 225.743 C 87.249 225.480,87.249 225.050,87.199 224.788 C 87.148 224.525,87.107 224.740,87.107 225.265 M312.163 225.584 C 312.164 226.168,312.205 226.381,312.254 226.059 C 312.303 225.736,312.302 225.258,312.251 224.997 C 312.201 224.736,312.161 225.000,312.163 225.584 M87.319 227.601 C 87.319 228.126,87.360 228.341,87.411 228.079 C 87.462 227.816,87.462 227.386,87.411 227.123 C 87.360 226.860,87.319 227.075,87.319 227.601 M311.947 228.025 C 311.947 228.551,311.989 228.766,312.039 228.503 C 312.090 228.240,312.090 227.811,312.039 227.548 C 311.989 227.285,311.947 227.500,311.947 228.025 M87.531 229.936 C 87.531 230.462,87.573 230.677,87.623 230.414 C 87.674 230.151,87.674 229.721,87.623 229.459 C 87.573 229.196,87.531 229.411,87.531 229.936 M311.738 230.467 C 311.740 231.051,311.781 231.265,311.830 230.942 C 311.878 230.619,311.877 230.141,311.827 229.880 C 311.776 229.619,311.736 229.883,311.738 230.467 M87.744 232.272 C 87.744 232.797,87.785 233.012,87.836 232.749 C 87.886 232.487,87.886 232.057,87.836 231.794 C 87.785 231.531,87.744 231.746,87.744 232.272 M311.526 232.803 C 311.527 233.386,311.569 233.600,311.617 233.277 C 311.666 232.955,311.665 232.477,311.614 232.216 C 311.564 231.955,311.524 232.219,311.526 232.803 M87.930 234.342 L 87.898 235.032 174.614 235.032 L 261.329 235.032 261.432 235.510 C 261.522 235.931,261.530 235.924,261.500 235.456 L 261.465 234.926 174.802 234.872 L 88.139 234.819 88.050 234.235 C 87.968 233.693,87.959 233.700,87.930 234.342 M311.313 235.350 C 311.315 235.934,311.356 236.148,311.405 235.825 C 311.454 235.502,311.453 235.025,311.402 234.764 C 311.352 234.502,311.312 234.766,311.313 235.350 M261.204 237.155 C 261.204 237.680,261.246 237.895,261.296 237.633 C 261.347 237.370,261.347 236.940,261.296 236.677 C 261.246 236.415,261.204 236.630,261.204 237.155 M311.101 237.686 C 311.103 238.270,311.144 238.483,311.193 238.161 C 311.241 237.838,311.240 237.360,311.190 237.099 C 311.139 236.838,311.099 237.102,311.101 237.686 M260.992 239.490 C 260.992 240.016,261.033 240.231,261.084 239.968 C 261.135 239.705,261.135 239.275,261.084 239.013 C 261.033 238.750,260.992 238.965,260.992 239.490 M310.886 240.127 C 310.886 240.653,310.927 240.868,310.978 240.605 C 311.028 240.342,311.028 239.912,310.978 239.650 C 310.927 239.387,310.886 239.602,310.886 240.127 M260.780 241.614 C 260.780 242.139,260.821 242.354,260.872 242.091 C 260.922 241.829,260.922 241.399,260.872 241.136 C 260.821 240.873,260.780 241.088,260.780 241.614 M310.676 242.569 C 310.678 243.153,310.719 243.367,310.768 243.044 C 310.817 242.721,310.816 242.243,310.765 241.982 C 310.715 241.721,310.675 241.985,310.676 242.569 M260.567 243.949 C 260.567 244.475,260.609 244.689,260.659 244.427 C 260.710 244.164,260.710 243.734,260.659 243.471 C 260.609 243.209,260.567 243.424,260.567 243.949 M310.461 245.011 C 310.461 245.536,310.503 245.751,310.553 245.488 C 310.604 245.226,310.604 244.796,310.553 244.533 C 310.503 244.270,310.461 244.485,310.461 245.011 M260.355 246.072 C 260.355 246.598,260.396 246.813,260.447 246.550 C 260.498 246.287,260.498 245.857,260.447 245.594 C 260.396 245.332,260.355 245.547,260.355 246.072 M310.252 247.452 C 310.253 248.036,310.295 248.250,310.343 247.927 C 310.392 247.604,310.391 247.127,310.341 246.865 C 310.290 246.604,310.250 246.868,310.252 247.452 M260.138 248.301 C 260.141 248.769,260.184 248.935,260.235 248.671 C 260.286 248.406,260.284 248.024,260.231 247.821 C 260.178 247.618,260.136 247.834,260.138 248.301 M310.037 249.894 C 310.037 250.419,310.078 250.634,310.129 250.372 C 310.179 250.109,310.179 249.679,310.129 249.416 C 310.078 249.153,310.037 249.368,310.037 249.894 M259.930 250.531 C 259.930 251.056,259.972 251.271,260.022 251.008 C 260.073 250.746,260.073 250.316,260.022 250.053 C 259.972 249.790,259.930 250.005,259.930 250.531 M309.827 252.335 C 309.829 252.919,309.870 253.133,309.919 252.810 C 309.968 252.488,309.966 252.010,309.916 251.749 C 309.866 251.488,309.826 251.752,309.827 252.335 M259.718 252.654 C 259.718 253.179,259.760 253.394,259.810 253.132 C 259.861 252.869,259.861 252.439,259.810 252.176 C 259.760 251.913,259.718 252.128,259.718 252.654 M309.612 254.777 C 309.612 255.303,309.653 255.518,309.704 255.255 C 309.755 254.992,309.755 254.562,309.704 254.299 C 309.653 254.037,309.612 254.252,309.612 254.777 M259.506 254.989 C 259.506 255.515,259.547 255.730,259.598 255.467 C 259.648 255.204,259.648 254.774,259.598 254.512 C 259.547 254.249,259.506 254.464,259.506 254.989 M259.293 257.113 C 259.293 257.638,259.335 257.853,259.386 257.590 C 259.436 257.327,259.436 256.898,259.386 256.635 C 259.335 256.372,259.293 256.587,259.293 257.113 M309.403 257.219 C 309.404 257.803,309.445 258.016,309.494 257.693 C 309.543 257.371,309.542 256.893,309.491 256.632 C 309.441 256.371,309.401 256.635,309.403 257.219 M259.081 259.448 C 259.081 259.973,259.123 260.188,259.173 259.926 C 259.224 259.663,259.224 259.233,259.173 258.970 C 259.123 258.708,259.081 258.923,259.081 259.448 M309.187 259.660 C 309.187 260.186,309.229 260.401,309.279 260.138 C 309.330 259.875,309.330 259.445,309.279 259.183 C 309.229 258.920,309.187 259.135,309.187 259.660 M90.719 260.828 C 90.720 261.412,90.762 261.626,90.811 261.303 C 90.859 260.980,90.858 260.502,90.808 260.241 C 90.757 259.980,90.717 260.244,90.719 260.828 M140.398 261.359 C 140.398 261.884,140.439 262.099,140.490 261.837 C 140.540 261.574,140.540 261.144,140.490 260.881 C 140.439 260.618,140.398 260.833,140.398 261.359 M258.869 261.571 C 258.869 262.097,258.910 262.312,258.961 262.049 C 259.011 261.786,259.011 261.356,258.961 261.093 C 258.910 260.831,258.869 261.046,258.869 261.571 M308.978 262.102 C 308.980 262.686,309.021 262.899,309.070 262.577 C 309.118 262.254,309.117 261.776,309.067 261.515 C 309.016 261.254,308.976 261.518,308.978 262.102 M90.931 263.376 C 90.933 263.960,90.974 264.173,91.023 263.851 C 91.072 263.528,91.070 263.050,91.020 262.789 C 90.970 262.528,90.930 262.792,90.931 263.376 M140.610 263.907 C 140.610 264.432,140.651 264.647,140.702 264.384 C 140.752 264.122,140.752 263.692,140.702 263.429 C 140.651 263.166,140.610 263.381,140.610 263.907 M258.652 263.800 C 258.655 264.268,258.698 264.434,258.749 264.169 C 258.800 263.905,258.798 263.523,258.745 263.320 C 258.691 263.117,258.650 263.333,258.652 263.800 M308.766 264.437 C 308.767 265.021,308.808 265.235,308.857 264.912 C 308.906 264.589,308.905 264.112,308.854 263.851 C 308.804 263.589,308.764 263.854,308.766 264.437 M91.144 266.136 C 91.145 266.720,91.186 266.933,91.235 266.611 C 91.284 266.288,91.283 265.810,91.232 265.549 C 91.182 265.288,91.142 265.552,91.144 266.136 M258.444 266.030 C 258.444 266.555,258.486 266.770,258.536 266.507 C 258.587 266.245,258.587 265.815,258.536 265.552 C 258.486 265.289,258.444 265.504,258.444 266.030 M140.822 266.242 C 140.822 266.768,140.864 266.982,140.914 266.720 C 140.965 266.457,140.965 266.027,140.914 265.764 C 140.864 265.502,140.822 265.717,140.822 266.242 M308.553 266.985 C 308.555 267.569,308.596 267.783,308.645 267.460 C 308.694 267.137,308.692 266.659,308.642 266.398 C 308.592 266.137,308.552 266.401,308.553 266.985 M258.232 268.153 C 258.232 268.678,258.273 268.893,258.324 268.631 C 258.375 268.368,258.375 267.938,258.324 267.675 C 258.273 267.412,258.232 267.627,258.232 268.153 M141.034 268.577 C 141.034 269.103,141.076 269.318,141.126 269.055 C 141.177 268.792,141.177 268.363,141.126 268.100 C 141.076 267.837,141.034 268.052,141.034 268.577 M91.356 268.896 C 91.357 269.480,91.399 269.693,91.447 269.371 C 91.496 269.048,91.495 268.570,91.445 268.309 C 91.394 268.048,91.354 268.312,91.356 268.896 M308.341 269.321 C 308.343 269.904,308.384 270.118,308.433 269.795 C 308.481 269.473,308.480 268.995,308.430 268.734 C 308.379 268.473,308.339 268.737,308.341 269.321 M258.020 270.488 C 258.020 271.014,258.061 271.229,258.112 270.966 C 258.162 270.703,258.162 270.273,258.112 270.011 C 258.061 269.748,258.020 269.963,258.020 270.488 M141.247 270.913 C 141.247 271.438,141.288 271.653,141.339 271.391 C 141.389 271.128,141.389 270.698,141.339 270.435 C 141.288 270.173,141.247 270.387,141.247 270.913 M91.568 271.656 C 91.570 272.240,91.611 272.454,91.660 272.131 C 91.709 271.808,91.707 271.330,91.657 271.069 C 91.606 270.808,91.567 271.072,91.568 271.656 M308.126 271.762 C 308.126 272.288,308.167 272.503,308.218 272.240 C 308.268 271.977,308.268 271.547,308.218 271.285 C 308.167 271.022,308.126 271.237,308.126 271.762 M257.807 272.611 C 257.807 273.137,257.849 273.352,257.899 273.089 C 257.950 272.826,257.950 272.396,257.899 272.134 C 257.849 271.871,257.807 272.086,257.807 272.611 M141.459 273.461 C 141.459 273.986,141.501 274.201,141.551 273.938 C 141.602 273.676,141.602 273.246,141.551 272.983 C 141.501 272.720,141.459 272.935,141.459 273.461 M91.780 274.204 C 91.782 274.788,91.823 275.001,91.872 274.679 C 91.921 274.356,91.920 273.878,91.869 273.617 C 91.819 273.356,91.779 273.620,91.780 274.204 M307.916 274.204 C 307.918 274.788,307.959 275.001,308.008 274.679 C 308.057 274.356,308.055 273.878,308.005 273.617 C 307.955 273.356,307.915 273.620,307.916 274.204 M257.591 274.841 C 257.593 275.308,257.637 275.474,257.687 275.210 C 257.738 274.946,257.736 274.564,257.683 274.361 C 257.630 274.158,257.588 274.374,257.591 274.841 M141.671 275.796 C 141.671 276.322,141.713 276.537,141.763 276.274 C 141.814 276.011,141.814 275.581,141.763 275.318 C 141.713 275.056,141.671 275.271,141.671 275.796 M307.701 276.645 C 307.701 277.171,307.743 277.386,307.793 277.123 C 307.844 276.860,307.844 276.430,307.793 276.168 C 307.743 275.905,307.701 276.120,307.701 276.645 M91.993 276.964 C 91.994 277.548,92.036 277.761,92.084 277.439 C 92.133 277.116,92.132 276.638,92.082 276.377 C 92.031 276.116,91.991 276.380,91.993 276.964 M257.383 277.070 C 257.383 277.596,257.424 277.811,257.475 277.548 C 257.525 277.285,257.525 276.855,257.475 276.592 C 257.424 276.330,257.383 276.545,257.383 277.070 M141.884 278.132 C 141.884 278.657,141.925 278.872,141.976 278.609 C 142.026 278.347,142.026 277.917,141.976 277.654 C 141.925 277.391,141.884 277.606,141.884 278.132 M307.492 279.087 C 307.493 279.671,307.535 279.885,307.583 279.562 C 307.632 279.239,307.631 278.761,307.580 278.500 C 307.530 278.239,307.490 278.503,307.492 279.087 M257.166 279.299 C 257.168 279.766,257.212 279.933,257.263 279.668 C 257.313 279.404,257.312 279.022,257.258 278.819 C 257.205 278.616,257.164 278.832,257.166 279.299 M92.205 279.724 C 92.207 280.308,92.248 280.522,92.297 280.199 C 92.346 279.876,92.344 279.398,92.294 279.137 C 92.243 278.876,92.204 279.140,92.205 279.724 M142.096 280.467 C 142.096 280.993,142.137 281.208,142.188 280.945 C 142.239 280.682,142.239 280.252,142.188 279.989 C 142.137 279.727,142.096 279.942,142.096 280.467 M256.958 281.529 C 256.958 282.054,256.999 282.269,257.050 282.006 C 257.101 281.744,257.101 281.314,257.050 281.051 C 256.999 280.788,256.958 281.003,256.958 281.529 M307.277 281.529 C 307.277 282.054,307.318 282.269,307.369 282.006 C 307.419 281.744,307.419 281.314,307.369 281.051 C 307.318 280.788,307.277 281.003,307.277 281.529 M92.417 282.272 C 92.419 282.856,92.460 283.069,92.509 282.747 C 92.558 282.424,92.557 281.946,92.506 281.685 C 92.456 281.424,92.416 281.688,92.417 282.272 M142.308 283.015 C 142.308 283.540,142.350 283.755,142.400 283.493 C 142.451 283.230,142.451 282.800,142.400 282.537 C 142.350 282.274,142.308 282.489,142.308 283.015 M256.746 283.652 C 256.746 284.177,256.787 284.392,256.838 284.130 C 256.888 283.867,256.888 283.437,256.838 283.174 C 256.787 282.911,256.746 283.126,256.746 283.652 M307.067 283.970 C 307.069 284.554,307.110 284.768,307.159 284.445 C 307.208 284.122,307.206 283.645,307.156 283.383 C 307.105 283.122,307.066 283.386,307.067 283.970 M92.630 285.032 C 92.631 285.616,92.673 285.829,92.721 285.507 C 92.770 285.184,92.769 284.706,92.718 284.445 C 92.668 284.184,92.628 284.448,92.630 285.032 M142.521 285.350 C 142.521 285.876,142.562 286.091,142.613 285.828 C 142.663 285.565,142.663 285.135,142.613 284.873 C 142.562 284.610,142.521 284.825,142.521 285.350 M256.533 285.987 C 256.533 286.513,256.575 286.728,256.625 286.465 C 256.676 286.202,256.676 285.772,256.625 285.510 C 256.575 285.247,256.533 285.462,256.533 285.987 M306.852 286.412 C 306.852 286.937,306.893 287.152,306.944 286.890 C 306.994 286.627,306.994 286.197,306.944 285.934 C 306.893 285.671,306.852 285.886,306.852 286.412 M92.842 287.792 C 92.844 288.376,92.885 288.589,92.934 288.267 C 92.982 287.944,92.981 287.466,92.931 287.205 C 92.880 286.944,92.840 287.208,92.842 287.792 M142.733 287.686 C 142.733 288.211,142.774 288.426,142.825 288.163 C 142.876 287.901,142.876 287.471,142.825 287.208 C 142.774 286.945,142.733 287.160,142.733 287.686 M256.321 288.110 C 256.321 288.636,256.363 288.851,256.413 288.588 C 256.464 288.325,256.464 287.895,256.413 287.633 C 256.363 287.370,256.321 287.585,256.321 288.110 M306.642 288.854 C 306.644 289.437,306.685 289.651,306.734 289.328 C 306.783 289.006,306.782 288.528,306.731 288.267 C 306.681 288.006,306.641 288.270,306.642 288.854 M142.945 290.021 C 142.945 290.547,142.987 290.762,143.037 290.499 C 143.088 290.236,143.088 289.806,143.037 289.544 C 142.987 289.281,142.945 289.496,142.945 290.021 M93.057 290.446 C 93.057 291.088,93.097 291.351,93.146 291.030 C 93.194 290.709,93.194 290.183,93.146 289.862 C 93.097 289.541,93.057 289.804,93.057 290.446 M256.104 290.340 C 256.107 290.807,256.150 290.973,256.201 290.709 C 256.252 290.445,256.250 290.063,256.197 289.860 C 256.144 289.657,256.102 289.873,256.104 290.340 M306.427 291.295 C 306.427 291.821,306.469 292.036,306.519 291.773 C 306.570 291.510,306.570 291.080,306.519 290.817 C 306.469 290.555,306.427 290.770,306.427 291.295 M143.158 292.569 C 143.158 293.094,143.199 293.309,143.250 293.047 C 143.300 292.784,143.300 292.354,143.250 292.091 C 143.199 291.829,143.158 292.044,143.158 292.569 M255.896 292.569 C 255.896 293.094,255.938 293.309,255.988 293.047 C 256.039 292.784,256.039 292.354,255.988 292.091 C 255.938 291.829,255.896 292.044,255.896 292.569 M93.267 293.100 C 93.268 293.684,93.309 293.897,93.358 293.575 C 93.407 293.252,93.406 292.774,93.355 292.513 C 93.305 292.252,93.265 292.516,93.267 293.100 M306.218 293.737 C 306.219 294.321,306.261 294.534,306.309 294.212 C 306.358 293.889,306.357 293.411,306.307 293.150 C 306.256 292.889,306.216 293.153,306.218 293.737 M143.370 294.904 C 143.370 295.430,143.411 295.645,143.462 295.382 C 143.513 295.119,143.513 294.689,143.462 294.427 C 143.411 294.164,143.370 294.379,143.370 294.904 M255.680 294.798 C 255.682 295.265,255.726 295.431,255.776 295.167 C 255.827 294.903,255.825 294.521,255.772 294.318 C 255.719 294.115,255.678 294.331,255.680 294.798 M93.479 295.860 C 93.481 296.444,93.522 296.657,93.571 296.335 C 93.619 296.012,93.618 295.534,93.568 295.273 C 93.517 295.012,93.477 295.276,93.479 295.860 M306.006 296.072 C 306.007 296.656,306.048 296.870,306.097 296.547 C 306.146 296.224,306.145 295.747,306.094 295.485 C 306.044 295.224,306.004 295.488,306.006 296.072 M255.472 297.028 C 255.472 297.553,255.513 297.768,255.564 297.505 C 255.614 297.243,255.614 296.813,255.564 296.550 C 255.513 296.287,255.472 296.502,255.472 297.028 M143.582 297.240 C 143.582 297.765,143.624 297.980,143.674 297.718 C 143.725 297.455,143.725 297.025,143.674 296.762 C 143.624 296.499,143.582 296.714,143.582 297.240 M93.691 298.620 C 93.693 299.204,93.734 299.417,93.783 299.095 C 93.832 298.772,93.830 298.294,93.780 298.033 C 93.730 297.772,93.690 298.036,93.691 298.620 M305.793 298.620 C 305.795 299.204,305.836 299.417,305.885 299.095 C 305.934 298.772,305.932 298.294,305.882 298.033 C 305.832 297.772,305.792 298.036,305.793 298.620 M255.156 298.938 C 255.105 299.289,255.142 299.575,255.238 299.575 C 255.335 299.575,255.414 299.289,255.414 298.938 C 255.414 298.588,255.377 298.301,255.332 298.301 C 255.287 298.301,255.208 298.588,255.156 298.938 M305.581 300.955 C 305.582 301.539,305.624 301.753,305.673 301.430 C 305.721 301.107,305.720 300.630,305.670 300.369 C 305.619 300.107,305.579 300.372,305.581 300.955 M93.904 301.168 C 93.905 301.752,93.946 301.965,93.995 301.643 C 94.044 301.320,94.043 300.842,93.992 300.581 C 93.942 300.320,93.902 300.584,93.904 301.168 M251.486 300.425 C 251.219 300.540,251.179 300.607,251.380 300.607 C 251.555 300.607,251.890 300.525,252.123 300.425 C 252.391 300.310,252.430 300.242,252.229 300.242 C 252.054 300.242,251.720 300.324,251.486 300.425 M243.631 302.548 C 243.363 302.663,243.324 302.730,243.524 302.730 C 243.700 302.730,244.034 302.648,244.268 302.548 C 244.535 302.433,244.574 302.365,244.374 302.365 C 244.199 302.365,243.864 302.447,243.631 302.548 M305.366 303.397 C 305.366 303.923,305.407 304.137,305.458 303.875 C 305.508 303.612,305.508 303.182,305.458 302.919 C 305.407 302.657,305.366 302.872,305.366 303.397 M94.116 303.928 C 94.118 304.512,94.159 304.725,94.208 304.403 C 94.256 304.080,94.255 303.602,94.205 303.341 C 94.154 303.080,94.114 303.344,94.116 303.928 M238.110 304.034 C 237.843 304.149,237.804 304.216,238.004 304.216 C 238.179 304.216,238.514 304.134,238.747 304.034 C 239.015 303.919,239.054 303.852,238.854 303.852 C 238.678 303.852,238.344 303.934,238.110 304.034 M305.156 305.839 C 305.158 306.423,305.199 306.636,305.248 306.313 C 305.297 305.991,305.295 305.513,305.245 305.252 C 305.195 304.991,305.155 305.255,305.156 305.839 M94.328 306.688 C 94.330 307.272,94.371 307.485,94.420 307.163 C 94.469 306.840,94.467 306.362,94.417 306.101 C 94.367 305.840,94.327 306.104,94.328 306.688 M224.735 307.643 C 224.467 307.758,224.428 307.826,224.628 307.826 C 224.804 307.826,225.138 307.744,225.372 307.643 C 225.639 307.528,225.678 307.461,225.478 307.461 C 225.303 307.461,224.968 307.543,224.735 307.643 M304.941 308.280 C 304.941 308.806,304.982 309.021,305.033 308.758 C 305.084 308.495,305.084 308.065,305.033 307.803 C 304.982 307.540,304.941 307.755,304.941 308.280 M94.543 309.342 C 94.543 309.984,94.583 310.247,94.632 309.926 C 94.681 309.605,94.681 309.079,94.632 308.758 C 94.583 308.437,94.543 308.700,94.543 309.342 M304.732 310.722 C 304.733 311.306,304.774 311.519,304.823 311.197 C 304.872 310.874,304.871 310.396,304.820 310.135 C 304.770 309.874,304.730 310.138,304.732 310.722 M94.753 311.996 C 94.754 312.580,94.796 312.793,94.844 312.471 C 94.893 312.148,94.892 311.670,94.842 311.409 C 94.791 311.148,94.751 311.412,94.753 311.996 M211.359 311.253 C 211.091 311.368,211.052 311.435,211.253 311.435 C 211.428 311.435,211.762 311.353,211.996 311.253 C 212.263 311.138,212.303 311.070,212.102 311.070 C 211.927 311.070,211.592 311.152,211.359 311.253 M304.516 313.163 C 304.516 313.689,304.558 313.904,304.608 313.641 C 304.659 313.378,304.659 312.949,304.608 312.686 C 304.558 312.423,304.516 312.638,304.516 313.163 M94.965 314.756 C 94.967 315.340,95.008 315.553,95.057 315.231 C 95.106 314.908,95.104 314.430,95.054 314.169 C 95.004 313.908,94.964 314.172,94.965 314.756 M304.307 315.605 C 304.309 316.189,304.350 316.403,304.399 316.080 C 304.447 315.757,304.446 315.279,304.396 315.018 C 304.345 314.757,304.305 315.021,304.307 315.605 M95.177 317.516 C 95.179 318.100,95.220 318.313,95.269 317.991 C 95.318 317.668,95.317 317.190,95.266 316.929 C 95.216 316.668,95.176 316.932,95.177 317.516 M304.092 318.047 C 304.092 318.572,304.133 318.787,304.184 318.524 C 304.234 318.262,304.234 317.832,304.184 317.569 C 304.133 317.306,304.092 317.521,304.092 318.047 M95.390 320.064 C 95.391 320.648,95.433 320.861,95.481 320.538 C 95.530 320.216,95.529 319.738,95.479 319.477 C 95.428 319.216,95.388 319.480,95.390 320.064 M303.882 320.488 C 303.884 321.072,303.925 321.286,303.974 320.963 C 304.023 320.640,304.022 320.163,303.971 319.902 C 303.921 319.640,303.881 319.904,303.882 320.488 M95.602 322.824 C 95.604 323.408,95.645 323.621,95.694 323.299 C 95.743 322.976,95.741 322.498,95.691 322.237 C 95.640 321.976,95.601 322.240,95.602 322.824 M303.667 322.930 C 303.667 323.455,303.709 323.670,303.759 323.408 C 303.810 323.145,303.810 322.715,303.759 322.452 C 303.709 322.189,303.667 322.404,303.667 322.930 M303.458 325.372 C 303.459 325.955,303.501 326.169,303.549 325.846 C 303.598 325.524,303.597 325.046,303.546 324.785 C 303.496 324.524,303.456 324.788,303.458 325.372 M95.814 325.584 C 95.816 326.168,95.857 326.381,95.906 326.059 C 95.955 325.736,95.954 325.258,95.903 324.997 C 95.853 324.736,95.813 325.000,95.814 325.584 M303.245 327.707 C 303.247 328.291,303.288 328.505,303.337 328.182 C 303.386 327.859,303.385 327.381,303.334 327.120 C 303.284 326.859,303.244 327.123,303.245 327.707 M96.030 328.238 C 96.030 328.880,96.069 329.143,96.118 328.822 C 96.167 328.501,96.167 327.975,96.118 327.654 C 96.069 327.333,96.030 327.596,96.030 328.238 M303.030 330.149 C 303.030 330.674,303.072 330.889,303.122 330.626 C 303.173 330.364,303.173 329.934,303.122 329.671 C 303.072 329.408,303.030 329.623,303.030 330.149 M96.239 330.892 C 96.241 331.476,96.282 331.689,96.331 331.367 C 96.379 331.044,96.378 330.566,96.328 330.305 C 96.277 330.044,96.237 330.308,96.239 330.892 M302.818 332.272 C 302.818 332.797,302.859 333.012,302.910 332.749 C 302.961 332.487,302.961 332.057,302.910 331.794 C 302.859 331.531,302.818 331.746,302.818 332.272 M96.451 333.652 C 96.453 334.236,96.494 334.449,96.543 334.127 C 96.592 333.804,96.591 333.326,96.540 333.065 C 96.490 332.804,96.450 333.068,96.451 333.652 M302.606 334.395 C 302.606 334.920,302.647 335.135,302.698 334.873 C 302.748 334.610,302.748 334.180,302.698 333.917 C 302.647 333.654,302.606 333.869,302.606 334.395 M96.664 336.412 C 96.665 336.996,96.707 337.209,96.755 336.887 C 96.804 336.564,96.803 336.086,96.752 335.825 C 96.702 335.564,96.662 335.828,96.664 336.412 M302.393 336.518 C 302.393 337.044,302.435 337.258,302.485 336.996 C 302.536 336.733,302.536 336.303,302.485 336.040 C 302.435 335.778,302.393 335.993,302.393 336.518 M302.123 338.093 C 302.123 338.258,302.004 338.442,301.858 338.501 C 301.699 338.565,301.742 338.614,301.964 338.624 C 302.200 338.635,302.335 338.486,302.335 338.217 C 302.335 337.983,302.288 337.792,302.229 337.792 C 302.171 337.792,302.123 337.927,302.123 338.093 M262.102 349.469 C 261.834 349.584,261.795 349.652,261.996 349.652 C 262.171 349.652,262.505 349.570,262.739 349.469 C 263.007 349.354,263.046 349.287,262.845 349.287 C 262.670 349.287,262.335 349.369,262.102 349.469 M255.945 351.168 C 255.677 351.283,255.638 351.350,255.839 351.350 C 256.014 351.350,256.348 351.268,256.582 351.168 C 256.849 351.053,256.889 350.985,256.688 350.985 C 256.513 350.985,256.178 351.067,255.945 351.168 M249.788 352.866 C 249.520 352.981,249.481 353.049,249.682 353.049 C 249.857 353.049,250.191 352.967,250.425 352.866 C 250.692 352.751,250.732 352.684,250.531 352.684 C 250.356 352.684,250.021 352.766,249.788 352.866 M243.631 354.565 C 243.363 354.680,243.324 354.747,243.524 354.747 C 243.700 354.747,244.034 354.665,244.268 354.565 C 244.535 354.450,244.574 354.382,244.374 354.382 C 244.199 354.382,243.864 354.464,243.631 354.565 M237.473 356.263 C 237.206 356.378,237.167 356.446,237.367 356.446 C 237.542 356.446,237.877 356.364,238.110 356.263 C 238.378 356.148,238.417 356.081,238.217 356.081 C 238.041 356.081,237.707 356.163,237.473 356.263 M231.316 357.962 C 231.049 358.077,231.009 358.144,231.210 358.144 C 231.385 358.144,231.720 358.062,231.953 357.962 C 232.221 357.847,232.260 357.779,232.059 357.779 C 231.884 357.779,231.550 357.861,231.316 357.962 M225.159 359.660 C 224.892 359.775,224.852 359.843,225.053 359.843 C 225.228 359.843,225.563 359.761,225.796 359.660 C 226.064 359.545,226.103 359.478,225.902 359.478 C 225.727 359.478,225.393 359.560,225.159 359.660 M219.002 361.359 C 218.734 361.474,218.695 361.541,218.896 361.541 C 219.071 361.541,219.406 361.459,219.639 361.359 C 219.907 361.244,219.946 361.176,219.745 361.176 C 219.570 361.176,219.236 361.258,219.002 361.359 M212.845 363.057 C 212.577 363.172,212.538 363.240,212.739 363.240 C 212.914 363.240,213.248 363.158,213.482 363.057 C 213.750 362.942,213.789 362.875,213.588 362.875 C 213.413 362.875,213.079 362.957,212.845 363.057 M206.688 364.756 C 206.420 364.871,206.381 364.938,206.582 364.938 C 206.757 364.938,207.091 364.856,207.325 364.756 C 207.592 364.641,207.632 364.573,207.431 364.573 C 207.256 364.573,206.921 364.655,206.688 364.756 M200.781 366.381 C 200.704 366.458,200.282 366.590,199.843 366.675 C 199.066 366.826,199.063 366.831,199.710 366.855 C 200.077 366.868,200.650 366.736,200.984 366.562 C 201.322 366.386,201.443 366.244,201.256 366.243 C 201.071 366.243,200.857 366.305,200.781 366.381 " stroke="none" fill="#ed8158" fill-rule="evenodd"></path><path id="path3" d="" stroke="none" fill="#e45424" fill-rule="evenodd"></path><path id="path4" d="" stroke="none" fill="#ec5b2c" fill-rule="evenodd"></path></g></svg>