<?xml version="1.0" encoding="UTF-8"?>
<!DOCTYPE svg PUBLIC "-//W3C//DTD SVG 1.1//EN" "http://www.w3.org/Graphics/SVG/1.1/DTD/svg11.dtd">
<svg xmlns="http://www.w3.org/2000/svg" version="1.1" width="5000px" height="5000px" style="shape-rendering:geometricPrecision; text-rendering:geometricPrecision; image-rendering:optimizeQuality; fill-rule:evenodd; clip-rule:evenodd" xmlns:xlink="http://www.w3.org/1999/xlink">
<g><path style="opacity:0.998" fill="#000000" d="M 300.5,3.5 C 1766.5,3.5 3232.5,3.5 4698.5,3.5C 4564.78,1498.17 4430.94,2992.83 4297,4487.5C 3696.43,4657.35 3095.6,4826.35 2494.5,4994.5C 1896.78,4826.2 1299.28,4657.2 702,4487.5C 568.056,2992.83 434.222,1498.17 300.5,3.5 Z M 1118.5,919.5 C 2039.17,919.5 2959.83,919.5 3880.5,919.5C 3877.33,966.185 3873.83,1012.85 3870,1059.5C 3856.54,1194.45 3843.71,1329.45 3831.5,1464.5C 3768.86,1466.15 3706.19,1466.99 3643.5,1467C 3004.5,1467.5 2365.5,1467.67 1726.5,1467.5C 1741.78,1650.18 1757.28,1832.85 1773,2015.5C 1772.95,2019.66 1773.78,2023.49 1775.5,2027C 1799.48,2028.19 1823.48,2028.85 1847.5,2029C 1964.17,2029.33 2080.83,2029.67 2197.5,2030C 2725.83,2030.22 3254.17,2030.72 3782.5,2031.5C 3770.69,2118.9 3761.19,2206.57 3754,2294.5C 3712.94,2757.5 3671.94,3220.5 3631,3683.5C 3629.63,3697.87 3627.96,3712.2 3626,3726.5C 3624.76,3728.54 3622.93,3729.71 3620.5,3730C 3246.56,3834.57 2872.23,3937.73 2497.5,4039.5C 2454.01,4028.96 2410.67,4017.79 2367.5,4006C 2077.32,3926.62 1787.32,3846.62 1497.5,3766C 1455.32,3754.29 1413.32,3741.95 1371.5,3729C 1368.34,3728.06 1365.51,3726.56 1363,3724.5C 1362.33,3717.17 1361.67,3709.83 1361,3702.5C 1338.52,3420.82 1316.02,3139.15 1293.5,2857.5C 1476.49,2858.09 1659.49,2858.92 1842.5,2860C 1855.64,3005.81 1868.97,3151.64 1882.5,3297.5C 2086.3,3352.78 2290.3,3407.45 2494.5,3461.5C 2698.76,3407.6 2902.76,3352.77 3106.5,3297C 3130.78,3061.37 3153.45,2825.54 3174.5,2589.5C 3061.17,2588.69 2947.84,2588.19 2834.5,2588C 2311.5,2587.5 1788.5,2587.33 1265.5,2587.5C 1217.43,2061.95 1170.6,1536.28 1125,1010.5C 1123.12,980.14 1120.95,949.807 1118.5,919.5 Z"/></g>
</svg>
