<?xml version="1.0" standalone="no"?>
<!DOCTYPE svg PUBLIC "-//W3C//DTD SVG 20010904//EN"
 "http://www.w3.org/TR/2001/REC-SVG-20010904/DTD/svg10.dtd">
<svg version="1.0" xmlns="http://www.w3.org/2000/svg"
 width="2048.000000pt" height="2048.000000pt" viewBox="0 0 2048.000000 2048.000000"
 preserveAspectRatio="xMidYMid meet">

<g transform="translate(0.000000,2048.000000) scale(0.100000,-0.100000)"
fill="#000000" stroke="none">
<path d="M9755 20470 c-1586 -82 -2971 -506 -3835 -1176 -146 -113 -375 -341
-466 -464 -186 -250 -291 -495 -324 -752 -6 -52 -10 -476 -10 -1145 l0 -1063
2560 0 2560 0 0 -255 0 -255 -3878 0 c-2600 0 -3905 -3 -3960 -10 -350 -44
-672 -219 -987 -534 -495 -497 -882 -1264 -1135 -2251 -496 -1930 -321 -4302
434 -5870 417 -865 949 -1393 1554 -1543 l107 -26 1118 -3 1117 -4 0 318 c0
619 41 1322 106 1833 217 1715 783 2586 1924 2959 365 119 805 193 1365 231
390 26 709 32 2115 40 1401 8 1716 14 2115 40 1514 99 2208 433 2623 1265 236
475 384 1155 452 2088 41 567 45 765 45 2517 l0 1685 -27 112 c-111 466 -442
881 -993 1248 -837 557 -2023 903 -3440 1005 -200 15 -927 21 -1140 10z
m-2172 -1615 c302 -53 559 -246 692 -520 75 -153 90 -224 90 -415 0 -191 -15
-262 -90 -415 -182 -377 -598 -592 -1006 -520 -216 37 -386 129 -537 290 -170
181 -254 394 -254 645 0 251 84 464 254 645 115 122 244 206 391 255 151 49
309 61 460 35z"/>
<path d="M15870 15048 c0 -1061 -101 -2062 -271 -2708 -135 -512 -305 -883
-563 -1225 -72 -96 -293 -319 -393 -399 -478 -375 -1131 -585 -2093 -670 -526
-47 -880 -56 -2535 -66 -1401 -9 -1640 -13 -2025 -40 -654 -46 -1142 -153
-1505 -330 -849 -415 -1228 -1356 -1335 -3318 -23 -427 -31 -1147 -28 -2502
l4 -1415 26 -107 c80 -322 261 -617 544 -888 917 -876 2747 -1412 4704 -1377
352 7 646 24 944 57 1320 146 2473 548 3205 1118 421 328 680 691 779 1090
l26 107 3 1118 4 1117 -2561 0 -2560 0 0 255 0 255 3933 3 3932 2 107 27 c323
81 617 261 888 544 1058 1107 1592 3495 1300 5814 -209 1660 -845 3033 -1658
3578 -180 121 -337 192 -532 240 l-105 26 -1117 3 -1118 4 0 -313z m-2580
-11568 c343 -87 622 -378 695 -725 36 -171 17 -389 -48 -545 -117 -284 -358
-496 -647 -569 -434 -111 -890 101 -1085 504 -75 153 -90 224 -90 415 0 142 3
176 23 245 103 358 389 621 751 690 105 20 290 13 401 -15z"/>
</g>
</svg>
