<?xml version="1.0" encoding="UTF-8"?>
<!DOCTYPE svg PUBLIC "-//W3C//DTD SVG 1.1//EN" "http://www.w3.org/Graphics/SVG/1.1/DTD/svg11.dtd">
<svg xmlns="http://www.w3.org/2000/svg" version="1.1" width="2400px" height="2400px" style="shape-rendering:geometricPrecision; text-rendering:geometricPrecision; image-rendering:optimizeQuality; fill-rule:evenodd; clip-rule:evenodd" xmlns:xlink="http://www.w3.org/1999/xlink">
<g><path style="opacity:1" fill="#efda4e" d="M -0.5,-0.5 C 799.5,-0.5 1599.5,-0.5 2399.5,-0.5C 2399.5,799.5 2399.5,1599.5 2399.5,2399.5C 1599.5,2399.5 799.5,2399.5 -0.5,2399.5C -0.5,1599.5 -0.5,799.5 -0.5,-0.5 Z M 1800.5,1088.5 C 1859.4,1086.03 1916.73,1094.19 1972.5,1113C 2011.42,1128.03 2045.59,1150.2 2075,1179.5C 2100.97,1206.45 2123.47,1235.95 2142.5,1268C 2084.76,1305.72 2026.76,1343.22 1968.5,1380.5C 1950.3,1341.47 1921.64,1312.97 1882.5,1295C 1846.29,1280.26 1809.96,1279.93 1773.5,1294C 1736.17,1310.37 1716.5,1339.03 1714.5,1380C 1715.3,1392.32 1717.14,1404.49 1720,1416.5C 1722.77,1429.05 1728.44,1440.05 1737,1449.5C 1749.1,1462.94 1762.93,1474.11 1778.5,1483C 1792.61,1490.77 1806.94,1498.1 1821.5,1505C 1861.75,1522.53 1902.08,1539.86 1942.5,1557C 1993.7,1579.59 2041.7,1607.25 2086.5,1640C 2125.74,1669.56 2156.57,1706.06 2179,1749.5C 2195.88,1787.01 2205.54,1826.35 2208,1867.5C 2215.83,2023.75 2146.66,2128.92 2000.5,2183C 1907.47,2213.04 1813.14,2217.71 1717.5,2197C 1654.03,2183.64 1596.03,2158.31 1543.5,2121C 1530.07,2110.24 1517.24,2098.74 1505,2086.5C 1488.25,2068.42 1472.25,2049.76 1457,2030.5C 1445.77,2014.54 1435.93,1997.7 1427.5,1980C 1487.93,1945.03 1548.43,1910.2 1609,1875.5C 1627.79,1904.31 1649.62,1930.81 1674.5,1955C 1734.12,2004.24 1802.12,2021.24 1878.5,2006C 1906.12,2001.36 1930.79,1990.36 1952.5,1973C 1977.65,1948.9 1988.15,1919.4 1984,1884.5C 1981.89,1859.11 1971.39,1837.94 1952.5,1821C 1934.46,1805.64 1914.79,1792.64 1893.5,1782C 1846.19,1760.18 1798.52,1739.18 1750.5,1719C 1697.3,1696.42 1647.97,1667.75 1602.5,1633C 1550.56,1589 1517.06,1533.5 1502,1466.5C 1483.55,1385.66 1494.22,1308.99 1534,1236.5C 1572.43,1174.76 1626.27,1132.26 1695.5,1109C 1707.32,1104.73 1719.32,1101.06 1731.5,1098C 1754.7,1095.23 1777.7,1092.06 1800.5,1088.5 Z M 1080.5,1102.5 C 1154.83,1102.5 1229.17,1102.5 1303.5,1102.5C 1304.68,1306.33 1304.68,1510.17 1303.5,1714C 1305.16,1771.5 1305.33,1829 1304,1886.5C 1303.06,1936.17 1293.72,1984.17 1276,2030.5C 1246.17,2101.67 1195.67,2152.17 1124.5,2182C 1091.53,2195.82 1057.2,2204.16 1021.5,2207C 947.073,2215.86 875.073,2206.53 805.5,2179C 741.026,2150.53 690.193,2106.36 653,2046.5C 645.12,2033.24 637.62,2019.74 630.5,2006C 691.417,1968.96 752.25,1931.79 813,1894.5C 824.25,1914.01 836.25,1933.01 849,1951.5C 864.705,1973.08 884.538,1989.58 908.5,2001C 943.441,2012.92 978.441,2013.26 1013.5,2002C 1051.21,1985.59 1072.05,1956.75 1076,1915.5C 1078.87,1882.9 1080.37,1850.24 1080.5,1817.5C 1079.21,1579.17 1079.21,1340.83 1080.5,1102.5 Z"/></g>
</svg>
